<svg class="duoicon" width="1em" height="1em" viewBox="0 0 24 24" xmlns="http://www.w3.org/2000/svg">
    <path fill="currentColor" d="M 21 3 C 21.77 3 22.251 3.833 21.866 4.5 C 21.687 4.809 21.357 5 21 5 L 21 16 C 21 17.105 20.105 18 19 18 L 13.945 18 L 16.238 20.293 C 16.773 20.847 16.508 21.772 15.761 21.958 C 15.426 22.041 15.072 21.947 14.824 21.707 L 11.995 18.879 L 9.167 21.707 C 8.613 22.242 7.688 21.977 7.502 21.23 C 7.4190000000000005 20.895 7.513 20.541 7.753 20.293 L 10.046 18 L 5 18 C 3.895 18 3 17.105 3 16 L 3 5 C 2.23 5 1.749 4.167 2.134 3.5 C 2.313 3.191 2.643 3 3 3 L 21 3 Z" opacity=".3" class="duoicon-secondary-layer"></path>
    <path fill="currentColor" d="M 8 11 C 7.448 11 7 11.448 7 12 L 7 13 C 7 13.77 7.833 14.251 8.5 13.866 C 8.809 13.687 9 13.357 9 13 L 9 12 C 9 11.448 8.552 11 8 11 Z" class="duoicon-primary-layer"></path>
    <path fill="currentColor" d="M 12 9 C 11.448 9 11 9.448 11 10 L 11 13 C 11 13.77 11.833 14.251 12.5 13.866 C 12.809 13.687 13 13.357 13 13 L 13 10 C 13 9.448 12.552 9 12 9 Z" class="duoicon-primary-layer"></path>
    <path fill="currentColor" d="M 16 7 C 15.493 7 15.066 7.38 15.007 7.883 L 15 8 L 15 13 C 15.001 13.77 15.835 14.25 16.501 13.864 C 16.773 13.707 16.956 13.43 16.993 13.117 L 17 13 L 17 8 C 17 7.448 16.552 7 16 7 Z" class="duoicon-primary-layer"></path>
</svg>