<svg class="duoicon" width="1em" height="1em" viewBox="0 0 24 24" xmlns="http://www.w3.org/2000/svg">
  <path fill="currentColor" d="M 20.15 18.125 L 5.875 3.85 C 6.591666666666667 3.1166666666666667 7.404000000000001 2.5083333333333333 8.312000000000001 2.025 C 9.220666666666668 1.5416666666666667 10.200000000000001 1.2 11.25 1 C 10.950000000000001 2.6500000000000004 11.041666666666668 4.262333333333333 11.525 5.837 C 12.008333333333333 7.412333333333333 12.841666666666667 8.791666666666666 14.025 9.975 C 15.208333333333334 11.158333333333333 16.587666666666667 11.991666666666667 18.163 12.475 C 19.737666666666666 12.958333333333332 21.349999999999998 13.049999999999999 23 12.75 C 22.816666666666666 13.799999999999999 22.479333333333333 14.779333333333334 21.988 15.688 C 21.496 16.596 20.883333333333333 17.408333333333335 20.15 18.125 Z" class="duoicon-primary-layer"></path>
  <path fill="currentColor" d="M 19.375 23.05 L 16.675 20.35 C 16.108333333333334 20.566666666666666 15.529333333333334 20.729 14.938 20.837 C 14.346 20.945666666666668 13.733333333333334 21 13.1 21 C 11.7 21 10.387333333333332 20.733333333333334 9.161999999999999 20.2 C 7.937333333333332 19.666666666666664 6.8709999999999996 18.945999999999998 5.962999999999999 18.038 C 5.054333333333333 17.129333333333335 4.333333333333333 16.06266666666667 3.7999999999999994 14.838000000000001 C 3.2666666666666666 13.612666666666668 3 12.3 3 10.9 C 3 10.266666666666667 3.054333333333333 9.654000000000002 3.163 9.062000000000001 C 3.271 8.470666666666668 3.433333333333333 7.8916666666666675 3.65 7.325000000000001 L 0.975 4.65 L 2.4 3.225 L 20.799999999999997 21.625 L 19.375 23.05 Z" opacity=".3" class="duoicon-secondary-layer"></path>
</svg>