<svg class="duoicon" width="1em" height="1em" viewBox="0 0 24 24" xmlns="http://www.w3.org/2000/svg">
  <path fill="currentColor" d="M 12 18.5 C 12.773 18.5 13.419 19.087 13.493 19.856 L 13.5 20 L 13.5 21 C 13.499 22.155 12.249 22.876 11.249 22.298000000000002 C 10.83 22.056 10.554 21.626 10.507 21.144 L 10.5 21 L 10.5 20 C 10.5 19.172 11.172 18.5 12 18.5 Z" class="duoicon-primary-layer"></path>
  <path fill="currentColor" d="M 12 1.5 C 12.773 1.5 13.419 2.087 13.493 2.856 L 13.5 3 L 13.5 4 C 13.499 5.155 12.249 5.876 11.249 5.298 C 10.83 5.056 10.554 4.626 10.507 4.144 L 10.5 4 L 10.5 3 C 10.5 2.172 11.172 1.5 12 1.5 Z" class="duoicon-primary-layer"></path>
  <path fill="currentColor" d="M 17.303 4.575 C 18.113 3.753 19.51 4.116 19.817 5.229 C 19.947 5.701 19.839 6.206 19.528 6.583 L 19.425 6.697 L 18.718 7.404 C 17.908 8.226 16.511 7.863 16.204 6.75 C 16.074 6.2780000000000005 16.182 5.773 16.493 5.396 L 16.596 5.282 L 17.303 4.575 Z" class="duoicon-primary-layer"></path>
  <path fill="currentColor" d="M 4.575 4.575 C 5.119 4.031 5.986 3.9859999999999998 6.583 4.472 L 6.697 4.575 L 7.404 5.282 C 8.226 6.092 7.863 7.489 6.75 7.796 C 6.2780000000000005 7.926 5.773 7.818 5.396 7.507 L 5.282 7.404 L 4.575 6.697 C 3.989 6.111 3.989 5.161 4.575 4.575 Z" class="duoicon-primary-layer"></path>
  <path fill="currentColor" d="M 21 10.5 C 22.155 10.501 22.876 11.751 22.298000000000002 12.751 C 22.056 13.17 21.626 13.446 21.144 13.493 L 21 13.5 L 20 13.5 C 18.845 13.499 18.124 12.249 18.701999999999998 11.249 C 18.944 10.83 19.374 10.554 19.856 10.507 L 20 10.5 L 21 10.5 Z" class="duoicon-primary-layer"></path>
  <path fill="currentColor" d="M 4 10.5 C 5.155 10.501 5.876 11.751 5.298 12.751 C 5.056 13.17 4.626 13.446 4.144 13.493 L 4 13.5 L 3 13.5 C 1.8450000000000002 13.499 1.124 12.249 1.702 11.249 C 1.944 10.83 2.374 10.554 2.856 10.507 L 3 10.5 L 4 10.5 Z" class="duoicon-primary-layer"></path>
  <path fill="currentColor" d="M 12 6 C 16.619 6 19.506 11 17.196 15 C 16.124 16.856 14.144 18 12 18 C 7.381 18 4.494 13 6.804 9 C 7.876 7.144 9.856 6 12 6 Z" opacity=".3" class="duoicon-secondary-layer"></path>
  <path fill="currentColor" d="M 5.282 16.596 C 6.092 15.774000000000001 7.489 16.137 7.796 17.25 C 7.926 17.722 7.818 18.227 7.507 18.604 L 7.404 18.718 L 6.697 19.425 C 5.8870000000000005 20.247 4.49 19.884 4.183 18.771 C 4.053 18.299 4.161 17.794 4.472 17.417 L 4.575 17.303 L 5.282 16.596 Z" class="duoicon-primary-layer"></path>
  <path fill="currentColor" d="M 16.596 16.596 C 17.14 16.052 18.007 16.007 18.604 16.493 L 18.718 16.596 L 19.425 17.303 C 20.247 18.113 19.884 19.51 18.771 19.817 C 18.299 19.947 17.794 19.839 17.417 19.528 L 17.303 19.425 L 16.596 18.718 C 16.01 18.132 16.01 17.182 16.596 16.596 Z" class="duoicon-primary-layer"></path>
</svg>