<svg
  width="200"
  height="200"
  viewBox="0 0 200 200"
  fill="none"
  xmlns="http://www.w3.org/2000/svg"
>
  <style>
    .light-mode {
      display: block;
    }
    .dark-mode {
      display: none;
    }

    @media (prefers-color-scheme: dark) {
      .light-mode {
        display: none;
      }
      .dark-mode {
        display: block;
      }
    }
  </style>

  <g class="light-mode">
    <path
      fill-rule="evenodd"
      clip-rule="evenodd"
      d="M100 200C155.228 200 200 155.228 200 100C200 44.7715 155.228 0 100 0C44.7715 0 0 44.7715 0 100C0 155.228 44.7715 200 100 200ZM100 143.75C124.162 143.75 143.75 124.162 143.75 100C143.75 75.8375 124.162 56.25 100 56.25C75.8375 56.25 56.25 75.8375 56.25 100C56.25 124.162 75.8375 143.75 100 143.75Z"
      fill="url(#paint0_linear_light)"
    />
  </g>

  <g class="dark-mode">
    <path
      fill-rule="evenodd"
      clip-rule="evenodd"
      d="M100 200C155.228 200 200 155.228 200 100C200 44.7715 155.228 0 100 0C44.7715 0 0 44.7715 0 100C0 155.228 44.7715 200 100 200ZM100 143.75C124.162 143.75 143.75 124.162 143.75 100C143.75 75.8375 124.162 56.25 100 56.25C75.8375 56.25 56.25 75.8375 56.25 100C56.25 124.162 75.8375 143.75 100 143.75Z"
      fill="url(#paint0_linear_dark)"
    />
  </g>

  <defs>
    <linearGradient
      id="paint0_linear_light"
      x1="100"
      y1="0"
      x2="100"
      y2="200"
      gradientUnits="userSpaceOnUse"
    >
      <stop stop-color="#475569" />
      <stop offset="1" stop-color="#cbd5e1" />
    </linearGradient>
    <linearGradient
      id="paint0_linear_dark"
      x1="100"
      y1="0"
      x2="100"
      y2="200"
      gradientUnits="userSpaceOnUse"
    >
      <stop stop-color="#e2e8f0" />
      <stop offset="1" stop-color="#64748b" />
    </linearGradient>
  </defs>
</svg>